<svg
  xmlns="http://www.w3.org/2000/svg"
  xmlns:xlink="http://www.w3.org/1999/xlink"
  width="1024"
  zoomAndPan="magnify"
  viewBox="0 0 768 767.999994"
  height="1024"
  preserveAspectRatio="xMidYMid meet"
  version="1.0"
>
  <defs>
    <g />
    <clipPath id="dd34d1824b">
      <path
        d="M 25.433594 125 L 742.433594 125 L 742.433594 643 L 25.433594 643 Z M 25.433594 125 "
        clip-rule="nonzero"
      />
    </clipPath>
  </defs>
  <path
    fill="#1b3b69"
    d="M 620.800781 363.921875 C 587.257812 356.238281 587.257812 356.238281 584.472656 324.039062 C 576.679688 242.839844 509.785156 181.617188 428.863281 181.617188 C 368.167969 181.617188 312.296875 217.585938 286.535156 273.167969 C 274.351562 299.664062 271.542969 309.507812 245.761719 299.226562 C 230.089844 292.992188 215.347656 294.046875 215.347656 294.046875 C 184.351562 294.046875 159.152344 319.257812 159.152344 350.261719 C 159.152344 355.402344 160.203125 361.113281 162.394531 367.652344 C 175.324219 399.449219 173.203125 402.960938 142.382812 420.679688 C 110.664062 439.175781 91.71875 471.648438 91.71875 507.640625 C 91.71875 563.445312 137.105469 608.828125 192.871094 608.847656 L 597.449219 608.847656 L 597.449219 608.828125 C 665.625 608.828125 721.074219 553.363281 721.074219 485.152344 C 721.070312 426.027344 678.90625 375.039062 620.800781 363.921875 Z M 620.800781 363.921875 "
    fill-opacity="1"
    fill-rule="evenodd"
  />
  <g clip-path="url(#dd34d1824b)">
    <path
      fill="#ffffff"
      d="M 606.683594 308.476562 C 596.835938 205.890625 511.4375 125.386719 406.316406 125.386719 C 324.964844 125.386719 255.300781 173.695312 223.207031 242.996094 C 213.535156 239.925781 203.472656 237.820312 192.792969 237.820312 C 136.945312 237.820312 91.644531 283.140625 91.644531 339 C 91.644531 350.113281 93.875 360.605469 97.175781 370.582031 C 53.726562 395.921875 24.210938 442.480469 24.210938 496.386719 C 24.210938 577.105469 89.628906 642.539062 170.316406 642.539062 L 170.316406 642.558594 L 574.894531 642.558594 L 574.894531 642.539062 C 668.023438 642.539062 743.460938 567.066406 743.460938 473.890625 C 743.460938 391.660156 684.566406 323.367188 606.683594 308.476562 M 574.902344 597.574219 L 574.902344 597.597656 L 170.316406 597.597656 C 114.546875 597.574219 69.167969 552.179688 69.167969 496.390625 C 69.167969 460.394531 88.109375 427.914062 119.828125 409.433594 C 150.648438 391.707031 152.765625 388.195312 139.835938 356.402344 C 137.65625 349.851562 136.601562 344.136719 136.601562 339 C 136.601562 307.996094 161.800781 282.785156 192.792969 282.785156 C 192.792969 282.785156 207.535156 281.734375 223.207031 287.96875 C 248.988281 298.246094 251.800781 288.40625 263.980469 261.898438 C 289.738281 206.324219 345.621094 170.355469 406.308594 170.355469 C 487.230469 170.355469 554.128906 231.578125 561.917969 312.785156 C 564.703125 344.976562 564.703125 344.976562 598.246094 352.667969 C 656.351562 363.773438 698.515625 414.761719 698.515625 473.898438 C 698.523438 542.101562 643.078125 597.574219 574.902344 597.574219 "
      fill-opacity="1"
      fill-rule="evenodd"
    />
  </g>
  <path
    fill="#ffffff"
    d="M 135.28125 525.4375 C 135.28125 526.207031 135.207031 526.972656 135.054688 527.730469 C 134.90625 528.488281 134.683594 529.226562 134.386719 529.9375 C 134.089844 530.652344 133.730469 531.332031 133.300781 531.972656 C 132.871094 532.617188 132.382812 533.210938 131.835938 533.757812 C 131.289062 534.304688 130.695312 534.789062 130.054688 535.21875 C 129.414062 535.648438 128.734375 536.011719 128.019531 536.308594 C 127.308594 536.601562 126.570312 536.828125 125.8125 536.976562 C 125.054688 537.128906 124.292969 537.203125 123.519531 537.203125 C 122.746094 537.203125 121.980469 537.128906 121.222656 536.976562 C 120.464844 536.828125 119.730469 536.601562 119.015625 536.308594 C 118.304688 536.011719 117.625 535.648438 116.984375 535.21875 C 116.339844 534.789062 115.746094 534.304688 115.199219 533.757812 C 114.65625 533.210938 114.167969 532.617188 113.738281 531.972656 C 113.308594 531.332031 112.945312 530.652344 112.652344 529.9375 C 112.355469 529.226562 112.132812 528.488281 111.980469 527.730469 C 111.832031 526.972656 111.753906 526.207031 111.753906 525.4375 C 111.753906 524.664062 111.832031 523.898438 111.980469 523.140625 C 112.132812 522.382812 112.355469 521.644531 112.652344 520.933594 C 112.945312 520.21875 113.308594 519.539062 113.738281 518.898438 C 114.167969 518.253906 114.65625 517.660156 115.199219 517.113281 C 115.746094 516.566406 116.339844 516.082031 116.984375 515.652344 C 117.625 515.222656 118.304688 514.859375 119.015625 514.5625 C 119.730469 514.269531 120.464844 514.042969 121.222656 513.894531 C 121.980469 513.742188 122.746094 513.667969 123.519531 513.667969 C 124.292969 513.667969 125.054688 513.742188 125.8125 513.894531 C 126.570312 514.042969 127.308594 514.269531 128.019531 514.5625 C 128.734375 514.859375 129.414062 515.222656 130.054688 515.652344 C 130.695312 516.082031 131.289062 516.566406 131.835938 517.113281 C 132.382812 517.660156 132.871094 518.253906 133.300781 518.898438 C 133.730469 519.539062 134.089844 520.21875 134.386719 520.933594 C 134.683594 521.644531 134.90625 522.382812 135.054688 523.140625 C 135.207031 523.898438 135.28125 524.664062 135.28125 525.4375 Z M 135.28125 525.4375 "
    fill-opacity="1"
    fill-rule="nonzero"
  />
  <path
    fill="#ffffff"
    d="M 207.28125 395.242188 C 207.238281 395.242188 207.238281 395.265625 207.191406 395.265625 C 154.476562 395.304688 111.75 438.066406 111.75 490.808594 C 111.75 497.023438 116.789062 502.050781 122.988281 502.050781 C 129.1875 502.050781 134.226562 497.023438 134.226562 490.808594 L 134.226562 490.789062 C 134.226562 450.445312 166.933594 417.726562 207.253906 417.726562 L 207.273438 417.726562 C 213.472656 417.726562 218.511719 412.699219 218.511719 406.484375 C 218.511719 400.269531 213.480469 395.242188 207.28125 395.242188 "
    fill-opacity="1"
    fill-rule="evenodd"
  />
  <g fill="#ffffff" fill-opacity="1">
    <g transform="translate(172.696446, 539.189225)">
      <g>
        <path
          d="M 40.46875 -71.125 C 44.34375 -71.125 48.148438 -70.578125 51.890625 -69.484375 C 55.628906 -68.398438 58.867188 -66.769531 61.609375 -64.59375 C 64.453125 -66.488281 67.644531 -68.050781 71.1875 -69.28125 C 74.738281 -70.507812 79.023438 -71.125 84.046875 -71.125 C 87.640625 -71.125 91.160156 -70.648438 94.609375 -69.703125 C 98.066406 -68.753906 101.144531 -67.265625 103.84375 -65.234375 C 106.539062 -63.203125 108.691406 -60.503906 110.296875 -57.140625 C 111.910156 -53.785156 112.71875 -49.691406 112.71875 -44.859375 L 112.71875 -0.140625 C 111.769531 0.140625 110.28125 0.421875 108.25 0.703125 C 106.21875 0.992188 104.113281 1.140625 101.9375 1.140625 C 99.851562 1.140625 97.984375 0.992188 96.328125 0.703125 C 94.671875 0.421875 93.273438 -0.140625 92.140625 -0.984375 C 91.003906 -1.835938 90.128906 -3 89.515625 -4.46875 C 88.898438 -5.9375 88.59375 -7.851562 88.59375 -10.21875 L 88.59375 -44.15625 C 88.59375 -46.988281 87.785156 -49.046875 86.171875 -50.328125 C 84.566406 -51.609375 82.390625 -52.25 79.640625 -52.25 C 78.316406 -52.25 76.894531 -51.941406 75.375 -51.328125 C 73.863281 -50.710938 72.734375 -50.070312 71.984375 -49.40625 C 72.078125 -49.03125 72.125 -48.675781 72.125 -48.34375 C 72.125 -48.007812 72.125 -47.703125 72.125 -47.421875 L 72.125 -0.140625 C 71.082031 0.140625 69.539062 0.421875 67.5 0.703125 C 65.46875 0.992188 63.410156 1.140625 61.328125 1.140625 C 59.242188 1.140625 57.375 0.992188 55.71875 0.703125 C 54.0625 0.421875 52.664062 -0.140625 51.53125 -0.984375 C 50.394531 -1.835938 49.519531 -3 48.90625 -4.46875 C 48.289062 -5.9375 47.984375 -7.851562 47.984375 -10.21875 L 47.984375 -44.15625 C 47.984375 -46.988281 47.109375 -49.046875 45.359375 -50.328125 C 43.609375 -51.609375 41.503906 -52.25 39.046875 -52.25 C 37.335938 -52.25 35.867188 -51.988281 34.640625 -51.46875 C 33.410156 -50.945312 32.367188 -50.445312 31.515625 -49.96875 L 31.515625 -0.140625 C 30.566406 0.140625 29.078125 0.421875 27.046875 0.703125 C 25.015625 0.992188 22.910156 1.140625 20.734375 1.140625 C 18.648438 1.140625 16.78125 0.992188 15.125 0.703125 C 13.46875 0.421875 12.070312 -0.140625 10.9375 -0.984375 C 9.800781 -1.835938 8.921875 -3 8.296875 -4.46875 C 7.679688 -5.9375 7.375 -7.851562 7.375 -10.21875 L 7.375 -53.09375 C 7.375 -55.644531 7.914062 -57.675781 9 -59.1875 C 10.09375 -60.707031 11.585938 -62.128906 13.484375 -63.453125 C 16.703125 -65.734375 20.703125 -67.582031 25.484375 -69 C 30.265625 -70.414062 35.257812 -71.125 40.46875 -71.125 Z M 40.46875 -71.125 "
        />
      </g>
    </g>
  </g>
  <g fill="#ffffff" fill-opacity="1">
    <g transform="translate(283.14123, 539.189225)">
      <g>
        <path
          d="M 43.875 2.265625 C 38.28125 2.265625 33.09375 1.488281 28.3125 -0.0625 C 23.539062 -1.625 19.378906 -3.96875 15.828125 -7.09375 C 12.273438 -10.21875 9.484375 -14.144531 7.453125 -18.875 C 5.421875 -23.613281 4.40625 -29.148438 4.40625 -35.484375 C 4.40625 -41.734375 5.421875 -47.101562 7.453125 -51.59375 C 9.484375 -56.09375 12.15625 -59.785156 15.46875 -62.671875 C 18.78125 -65.566406 22.566406 -67.695312 26.828125 -69.0625 C 31.085938 -70.4375 35.441406 -71.125 39.890625 -71.125 C 44.910156 -71.125 49.476562 -70.363281 53.59375 -68.84375 C 57.707031 -67.332031 61.253906 -65.253906 64.234375 -62.609375 C 67.222656 -59.960938 69.546875 -56.789062 71.203125 -53.09375 C 72.859375 -49.40625 73.6875 -45.382812 73.6875 -41.03125 C 73.6875 -37.8125 72.785156 -35.347656 70.984375 -33.640625 C 69.179688 -31.941406 66.671875 -30.851562 63.453125 -30.375 L 28.390625 -25.125 C 29.429688 -22 31.5625 -19.65625 34.78125 -18.09375 C 38 -16.539062 41.691406 -15.765625 45.859375 -15.765625 C 49.734375 -15.765625 53.398438 -16.257812 56.859375 -17.25 C 60.316406 -18.238281 63.132812 -19.398438 65.3125 -20.734375 C 66.820312 -19.785156 68.097656 -18.457031 69.140625 -16.75 C 70.179688 -15.050781 70.703125 -13.253906 70.703125 -11.359375 C 70.703125 -7.097656 68.710938 -3.925781 64.734375 -1.84375 C 61.703125 -0.238281 58.296875 0.84375 54.515625 1.40625 C 50.734375 1.976562 47.1875 2.265625 43.875 2.265625 Z M 39.890625 -53.515625 C 37.617188 -53.515625 35.65625 -53.132812 34 -52.375 C 32.34375 -51.625 30.992188 -50.65625 29.953125 -49.46875 C 28.910156 -48.289062 28.128906 -46.96875 27.609375 -45.5 C 27.085938 -44.03125 26.78125 -42.539062 26.6875 -41.03125 L 50.96875 -45 C 50.6875 -46.894531 49.644531 -48.785156 47.84375 -50.671875 C 46.039062 -52.566406 43.390625 -53.515625 39.890625 -53.515625 Z M 39.890625 -53.515625 "
        />
      </g>
    </g>
  </g>
  <g fill="#ffffff" fill-opacity="1">
    <g transform="translate(351.423625, 539.189225)">
      <g>
        <path
          d="M 7.375 -68 C 8.320312 -68.28125 9.8125 -68.5625 11.84375 -68.84375 C 13.882812 -69.132812 15.992188 -69.28125 18.171875 -69.28125 C 20.253906 -69.28125 22.125 -69.132812 23.78125 -68.84375 C 25.4375 -68.5625 26.832031 -67.992188 27.96875 -67.140625 C 29.101562 -66.296875 29.976562 -65.140625 30.59375 -63.671875 C 31.207031 -62.203125 31.515625 -60.285156 31.515625 -57.921875 L 31.515625 -27.40625 C 31.515625 -23.519531 32.460938 -20.75 34.359375 -19.09375 C 36.253906 -17.4375 39 -16.609375 42.59375 -16.609375 C 44.769531 -16.609375 46.539062 -16.796875 47.90625 -17.171875 C 49.28125 -17.554688 50.347656 -17.9375 51.109375 -18.3125 L 51.109375 -68 C 52.054688 -68.28125 53.546875 -68.5625 55.578125 -68.84375 C 57.617188 -69.132812 59.722656 -69.28125 61.890625 -69.28125 C 63.972656 -69.28125 65.84375 -69.132812 67.5 -68.84375 C 69.15625 -68.5625 70.550781 -67.992188 71.6875 -67.140625 C 72.820312 -66.296875 73.695312 -65.140625 74.3125 -63.671875 C 74.9375 -62.203125 75.25 -60.285156 75.25 -57.921875 L 75.25 -14.765625 C 75.25 -10.035156 73.257812 -6.484375 69.28125 -4.109375 C 65.96875 -2.035156 62.015625 -0.457031 57.421875 0.625 C 52.835938 1.71875 47.847656 2.265625 42.453125 2.265625 C 37.335938 2.265625 32.625 1.695312 28.3125 0.5625 C 24.007812 -0.570312 20.296875 -2.320312 17.171875 -4.6875 C 14.054688 -7.050781 11.644531 -10.101562 9.9375 -13.84375 C 8.226562 -17.582031 7.375 -22.101562 7.375 -27.40625 Z M 7.375 -68 "
        />
      </g>
    </g>
  </g>
  <g fill="#ffffff" fill-opacity="1">
    <g transform="translate(424.390739, 539.189225)"><g /></g>
  </g>
  <g fill="#ffffff" fill-opacity="1">
    <g transform="translate(443.128768, 539.189225)">
      <g>
        <path
          d="M 34.078125 -0.5625 C 33.035156 -0.28125 31.398438 0 29.171875 0.28125 C 26.953125 0.5625 24.753906 0.703125 22.578125 0.703125 C 20.398438 0.703125 18.484375 0.535156 16.828125 0.203125 C 15.171875 -0.117188 13.773438 -0.707031 12.640625 -1.5625 C 11.503906 -2.414062 10.648438 -3.597656 10.078125 -5.109375 C 9.515625 -6.617188 9.234375 -8.609375 9.234375 -11.078125 L 9.234375 -86.03125 C 10.273438 -86.21875 11.929688 -86.476562 14.203125 -86.8125 C 16.472656 -87.144531 18.648438 -87.3125 20.734375 -87.3125 C 22.910156 -87.3125 24.828125 -87.144531 26.484375 -86.8125 C 28.140625 -86.476562 29.535156 -85.882812 30.671875 -85.03125 C 31.804688 -84.1875 32.65625 -83.003906 33.21875 -81.484375 C 33.789062 -79.972656 34.078125 -77.988281 34.078125 -75.53125 Z M 34.078125 -0.5625 "
        />
      </g>
    </g>
  </g>
  <g fill="#ffffff" fill-opacity="1">
    <g transform="translate(476.772702, 539.189225)">
      <g>
        <path
          d="M 4.96875 -43.15625 C 4.96875 -50.539062 6.125 -57.070312 8.4375 -62.75 C 10.757812 -68.425781 13.929688 -73.179688 17.953125 -77.015625 C 21.984375 -80.847656 26.71875 -83.757812 32.15625 -85.75 C 37.59375 -87.738281 43.484375 -88.734375 49.828125 -88.734375 C 56.171875 -88.734375 62.0625 -87.738281 67.5 -85.75 C 72.945312 -83.757812 77.703125 -80.847656 81.765625 -77.015625 C 85.835938 -73.179688 89.03125 -68.425781 91.34375 -62.75 C 93.664062 -57.070312 94.828125 -50.539062 94.828125 -43.15625 C 94.828125 -35.769531 93.691406 -29.210938 91.421875 -23.484375 C 89.148438 -17.765625 86.003906 -12.988281 81.984375 -9.15625 C 77.960938 -5.320312 73.207031 -2.410156 67.71875 -0.421875 C 62.226562 1.566406 56.265625 2.5625 49.828125 2.5625 C 43.390625 2.5625 37.425781 1.546875 31.9375 -0.484375 C 26.445312 -2.523438 21.710938 -5.484375 17.734375 -9.359375 C 13.765625 -13.242188 10.644531 -18.023438 8.375 -23.703125 C 6.101562 -29.390625 4.96875 -35.875 4.96875 -43.15625 Z M 30.515625 -43.15625 C 30.515625 -34.539062 32.265625 -28.101562 35.765625 -23.84375 C 39.273438 -19.59375 43.960938 -17.46875 49.828125 -17.46875 C 55.796875 -17.46875 60.53125 -19.59375 64.03125 -23.84375 C 67.53125 -28.101562 69.28125 -34.539062 69.28125 -43.15625 C 69.28125 -51.675781 67.550781 -58.066406 64.09375 -62.328125 C 60.644531 -66.585938 55.9375 -68.71875 49.96875 -68.71875 C 44.101562 -68.71875 39.394531 -66.609375 35.84375 -62.390625 C 32.289062 -58.179688 30.515625 -51.769531 30.515625 -43.15625 Z M 30.515625 -43.15625 "
        />
      </g>
    </g>
  </g>
  <g fill="#ffffff" fill-opacity="1">
    <g transform="translate(566.917099, 539.189225)">
      <g>
        <path
          d="M 5.25 -66.15625 C 4.59375 -67.195312 3.976562 -68.613281 3.40625 -70.40625 C 2.84375 -72.207031 2.5625 -74.101562 2.5625 -76.09375 C 2.5625 -79.78125 3.390625 -82.425781 5.046875 -84.03125 C 6.703125 -85.644531 8.851562 -86.453125 11.5 -86.453125 L 73.390625 -86.453125 C 74.054688 -85.410156 74.671875 -83.988281 75.234375 -82.1875 C 75.804688 -80.394531 76.09375 -78.503906 76.09375 -76.515625 C 76.09375 -72.828125 75.265625 -70.175781 73.609375 -68.5625 C 71.953125 -66.957031 69.800781 -66.15625 67.15625 -66.15625 L 51.390625 -66.15625 L 51.390625 -0.5625 C 50.347656 -0.28125 48.710938 0 46.484375 0.28125 C 44.265625 0.5625 42.066406 0.703125 39.890625 0.703125 C 37.710938 0.703125 35.796875 0.535156 34.140625 0.203125 C 32.484375 -0.117188 31.085938 -0.707031 29.953125 -1.5625 C 28.816406 -2.414062 27.960938 -3.597656 27.390625 -5.109375 C 26.828125 -6.617188 26.546875 -8.609375 26.546875 -11.078125 L 26.546875 -66.15625 Z M 5.25 -66.15625 "
        />
      </g>
    </g>
  </g>
</svg>
